<svg xmlns="http://www.w3.org/2000/svg" width="2600" height="4350" viewBox="0 0 2600 4350">
<defs>
<marker id="arrow" markerWidth="12" markerHeight="12" refX="10" refY="6" orient="auto" markerUnits="strokeWidth">
<path d="M0,0 L12,6 L0,12 z" fill="#1F2933"/>
</marker>
</defs>
<rect x="0" y="0" width="2600" height="4350" fill="#FFFFFF"/>
<text text-anchor="middle" font-family="Microsoft YaHei, SimSun, sans-serif" font-size="66" font-weight="700" fill="#1F2933"><tspan x="1300" y="102.5">软件总体流程</tspan></text>
<rect x="70" y="2360" width="1160" height="1230" rx="28" fill="#F6F8FA" stroke="#52616B" stroke-width="5" stroke-dasharray="24 16"/>
<text text-anchor="middle" font-family="Microsoft YaHei, SimSun, sans-serif" font-size="45" font-weight="700" fill="#1F2933"><tspan x="650" y="2434.0">抓取闭环</tspan></text>
<rect x="1370" y="2360" width="1160" height="1230" rx="28" fill="#F6F8FA" stroke="#52616B" stroke-width="5" stroke-dasharray="24 16"/>
<text text-anchor="middle" font-family="Microsoft YaHei, SimSun, sans-serif" font-size="45" font-weight="700" fill="#1F2933"><tspan x="1950" y="2433.5">放置闭环</tspan></text>
<polyline points="1300,240 1300,290" fill="none" stroke="#1F2933" stroke-width="6" stroke-linejoin="round" stroke-linecap="round" marker-end="url(#arrow)"/>
<polyline points="1300,430 1300,490" fill="none" stroke="#1F2933" stroke-width="6" stroke-linejoin="round" stroke-linecap="round" marker-end="url(#arrow)"/>
<polyline points="1300,630 1300,680" fill="none" stroke="#1F2933" stroke-width="6" stroke-linejoin="round" stroke-linecap="round" marker-end="url(#arrow)"/>
<polyline points="1300,880 1300,950" fill="none" stroke="#1F2933" stroke-width="6" stroke-linejoin="round" stroke-linecap="round" marker-end="url(#arrow)"/>
<rect x="1322" y="887" width="50" height="57" fill="#FFFFFF"/>
<text x="1330" y="936" font-family="Microsoft YaHei, SimSun, sans-serif" font-size="34" font-weight="700" fill="#1F2933">是</text>
<polyline points="1300,1060 1300,1120" fill="none" stroke="#1F2933" stroke-width="6" stroke-linejoin="round" stroke-linecap="round" marker-end="url(#arrow)"/>
<polyline points="1300,1230 1300,1300" fill="none" stroke="#1F2933" stroke-width="6" stroke-linejoin="round" stroke-linecap="round" marker-end="url(#arrow)"/>
<polyline points="1300,1490 1300,1560" fill="none" stroke="#1F2933" stroke-width="6" stroke-linejoin="round" stroke-linecap="round" marker-end="url(#arrow)"/>
<rect x="1322" y="1492" width="50" height="57" fill="#FFFFFF"/>
<text x="1330" y="1541" font-family="Microsoft YaHei, SimSun, sans-serif" font-size="34" font-weight="700" fill="#1F2933">是</text>
<polyline points="1300,1690 1300,1750" fill="none" stroke="#1F2933" stroke-width="6" stroke-linejoin="round" stroke-linecap="round" marker-end="url(#arrow)"/>
<polyline points="1300,1890 1300,1950" fill="none" stroke="#1F2933" stroke-width="6" stroke-linejoin="round" stroke-linecap="round" marker-end="url(#arrow)"/>
<polyline points="1300,2090 1300,2140" fill="none" stroke="#1F2933" stroke-width="6" stroke-linejoin="round" stroke-linecap="round" marker-end="url(#arrow)"/>
<polyline points="1300,2320 1300,2390" fill="none" stroke="#1F2933" stroke-width="6" stroke-linejoin="round" stroke-linecap="round" marker-end="url(#arrow)"/>
<rect x="1322" y="2317" width="50" height="57" fill="#FFFFFF"/>
<text x="1330" y="2366" font-family="Microsoft YaHei, SimSun, sans-serif" font-size="34" font-weight="700" fill="#1F2933">是</text>
<polyline points="1000,1400 760,1400 760,1175 1000,1175" fill="none" stroke="#1F2933" stroke-width="6" stroke-linejoin="round" stroke-linecap="round" marker-end="url(#arrow)"/>
<rect x="767" y="1342" width="50" height="57" fill="#FFFFFF"/>
<text x="775" y="1391" font-family="Microsoft YaHei, SimSun, sans-serif" font-size="34" font-weight="700" fill="#1F2933">否</text>
<polyline points="1620,780 2570,780 2570,3660 2350,3660" fill="none" stroke="#1F2933" stroke-width="6" stroke-linejoin="round" stroke-linecap="round" marker-end="url(#arrow)"/>
<rect x="1642" y="712" width="50" height="57" fill="#FFFFFF"/>
<text x="1650" y="761" font-family="Microsoft YaHei, SimSun, sans-serif" font-size="34" font-weight="700" fill="#1F2933">否</text>
<polyline points="1620,2220 2570,2220 2570,3660 2350,3660" fill="none" stroke="#1F2933" stroke-width="6" stroke-linejoin="round" stroke-linecap="round" marker-end="url(#arrow)"/>
<rect x="1642" y="2152" width="50" height="57" fill="#FFFFFF"/>
<text x="1650" y="2201" font-family="Microsoft YaHei, SimSun, sans-serif" font-size="34" font-weight="700" fill="#1F2933">否</text>
<polyline points="1000,2470 650,2470 650,2500" fill="none" stroke="#1F2933" stroke-width="6" stroke-linejoin="round" stroke-linecap="round" marker-end="url(#arrow)"/>
<rect x="777" y="2397" width="84" height="59" fill="#FFFFFF"/>
<text x="785" y="2448" font-family="Microsoft YaHei, SimSun, sans-serif" font-size="34" font-weight="700" fill="#1F2933">抓取</text>
<polyline points="1600,2470 1950,2470 1950,2500" fill="none" stroke="#1F2933" stroke-width="6" stroke-linejoin="round" stroke-linecap="round" marker-end="url(#arrow)"/>
<rect x="1627" y="2397" width="84" height="57" fill="#FFFFFF"/>
<text x="1635" y="2446" font-family="Microsoft YaHei, SimSun, sans-serif" font-size="34" font-weight="700" fill="#1F2933">放置</text>
<polyline points="650,2630 650,2680" fill="none" stroke="#1F2933" stroke-width="6" stroke-linejoin="round" stroke-linecap="round" marker-end="url(#arrow)"/>
<polyline points="650,2880 650,2930" fill="none" stroke="#1F2933" stroke-width="6" stroke-linejoin="round" stroke-linecap="round" marker-end="url(#arrow)"/>
<rect x="672" y="2872" width="50" height="57" fill="#FFFFFF"/>
<text x="680" y="2921" font-family="Microsoft YaHei, SimSun, sans-serif" font-size="34" font-weight="700" fill="#1F2933">是</text>
<polyline points="910,2780 1060,2780 1060,2920" fill="none" stroke="#1F2933" stroke-width="6" stroke-linejoin="round" stroke-linecap="round" marker-end="url(#arrow)"/>
<rect x="917" y="2710" width="50" height="57" fill="#FFFFFF"/>
<text x="925" y="2759" font-family="Microsoft YaHei, SimSun, sans-serif" font-size="34" font-weight="700" fill="#1F2933">否</text>
<polyline points="1060,3040 1160,3040 1160,2555 1020,2555" fill="none" stroke="#1F2933" stroke-width="6" stroke-linejoin="round" stroke-linecap="round" marker-end="url(#arrow)"/>
<polyline points="650,3040 650,3075" fill="none" stroke="#1F2933" stroke-width="6" stroke-linejoin="round" stroke-linecap="round" marker-end="url(#arrow)"/>
<polyline points="650,3185 650,3220" fill="none" stroke="#1F2933" stroke-width="6" stroke-linejoin="round" stroke-linecap="round" marker-end="url(#arrow)"/>
<polyline points="650,3330 650,3370" fill="none" stroke="#1F2933" stroke-width="6" stroke-linejoin="round" stroke-linecap="round" marker-end="url(#arrow)"/>
<polyline points="650,3470 650,3510" fill="none" stroke="#1F2933" stroke-width="6" stroke-linejoin="round" stroke-linecap="round" marker-end="url(#arrow)"/>
<polyline points="1950,2630 1950,2680" fill="none" stroke="#1F2933" stroke-width="6" stroke-linejoin="round" stroke-linecap="round" marker-end="url(#arrow)"/>
<polyline points="1950,2880 1950,2930" fill="none" stroke="#1F2933" stroke-width="6" stroke-linejoin="round" stroke-linecap="round" marker-end="url(#arrow)"/>
<rect x="1972" y="2872" width="50" height="57" fill="#FFFFFF"/>
<text x="1980" y="2921" font-family="Microsoft YaHei, SimSun, sans-serif" font-size="34" font-weight="700" fill="#1F2933">是</text>
<polyline points="2210,2780 2355,2780 2355,2920" fill="none" stroke="#1F2933" stroke-width="6" stroke-linejoin="round" stroke-linecap="round" marker-end="url(#arrow)"/>
<rect x="2217" y="2710" width="50" height="57" fill="#FFFFFF"/>
<text x="2225" y="2759" font-family="Microsoft YaHei, SimSun, sans-serif" font-size="34" font-weight="700" fill="#1F2933">否</text>
<polyline points="2355,3040 2480,3040 2480,2555 2320,2555" fill="none" stroke="#1F2933" stroke-width="6" stroke-linejoin="round" stroke-linecap="round" marker-end="url(#arrow)"/>
<polyline points="1950,3040 1950,3070" fill="none" stroke="#1F2933" stroke-width="6" stroke-linejoin="round" stroke-linecap="round" marker-end="url(#arrow)"/>
<polyline points="1950,3230 1950,3260" fill="none" stroke="#1F2933" stroke-width="6" stroke-linejoin="round" stroke-linecap="round" marker-end="url(#arrow)"/>
<rect x="1972" y="3217" width="50" height="57" fill="#FFFFFF"/>
<text x="1980" y="3266" font-family="Microsoft YaHei, SimSun, sans-serif" font-size="34" font-weight="700" fill="#1F2933">是</text>
<polyline points="2200,3150 2355,3150 2355,3280" fill="none" stroke="#1F2933" stroke-width="6" stroke-linejoin="round" stroke-linecap="round" marker-end="url(#arrow)"/>
<rect x="2207" y="3080" width="50" height="57" fill="#FFFFFF"/>
<text x="2215" y="3129" font-family="Microsoft YaHei, SimSun, sans-serif" font-size="34" font-weight="700" fill="#1F2933">否</text>
<polyline points="2355,3400 2490,3400 2490,2555 2320,2555" fill="none" stroke="#1F2933" stroke-width="6" stroke-linejoin="round" stroke-linecap="round" marker-end="url(#arrow)"/>
<polyline points="1950,3350 1950,3380" fill="none" stroke="#1F2933" stroke-width="6" stroke-linejoin="round" stroke-linecap="round" marker-end="url(#arrow)"/>
<polyline points="1950,3465 1950,3500" fill="none" stroke="#1F2933" stroke-width="6" stroke-linejoin="round" stroke-linecap="round" marker-end="url(#arrow)"/>
<polyline points="430,3540 430,3690 780,3690" fill="none" stroke="#1F2933" stroke-width="6" stroke-linejoin="round" stroke-linecap="round" marker-end="url(#arrow)"/>
<rect x="442" y="3572" width="50" height="57" fill="#FFFFFF"/>
<text x="450" y="3621" font-family="Microsoft YaHei, SimSun, sans-serif" font-size="34" font-weight="700" fill="#1F2933">是</text>
<polyline points="870,3540 870,3610 2000,3610 2000,3650" fill="none" stroke="#1F2933" stroke-width="6" stroke-linejoin="round" stroke-linecap="round" marker-end="url(#arrow)"/>
<rect x="877" y="3537" width="50" height="57" fill="#FFFFFF"/>
<text x="885" y="3586" font-family="Microsoft YaHei, SimSun, sans-serif" font-size="34" font-weight="700" fill="#1F2933">否</text>
<polyline points="1730,3570 1350,3570 1350,3650" fill="none" stroke="#1F2933" stroke-width="6" stroke-linejoin="round" stroke-linecap="round" marker-end="url(#arrow)"/>
<rect x="1572" y="3497" width="50" height="57" fill="#FFFFFF"/>
<text x="1580" y="3546" font-family="Microsoft YaHei, SimSun, sans-serif" font-size="34" font-weight="700" fill="#1F2933">是</text>
<polyline points="2170,3570 2170,3650" fill="none" stroke="#1F2933" stroke-width="6" stroke-linejoin="round" stroke-linecap="round" marker-end="url(#arrow)"/>
<rect x="2182" y="3572" width="50" height="57" fill="#FFFFFF"/>
<text x="2190" y="3621" font-family="Microsoft YaHei, SimSun, sans-serif" font-size="34" font-weight="700" fill="#1F2933">否</text>
<polyline points="780,3755 35,3755 35,1175 1000,1175" fill="none" stroke="#1F2933" stroke-width="6" stroke-linejoin="round" stroke-linecap="round" marker-end="url(#arrow)"/>
<rect x="47" y="3677" width="330" height="57" fill="#FFFFFF"/>
<text x="55" y="3726" font-family="Microsoft YaHei, SimSun, sans-serif" font-size="34" font-weight="700" fill="#1F2933">记录日志并返回IDLE</text>
<polyline points="2050,3770 2050,3830" fill="none" stroke="#1F2933" stroke-width="6" stroke-linejoin="round" stroke-linecap="round" marker-end="url(#arrow)"/>
<polyline points="2300,3930 2580,3930 2580,1005 1650,1005" fill="none" stroke="#1F2933" stroke-width="6" stroke-linejoin="round" stroke-linecap="round" marker-end="url(#arrow)"/>
<rect x="2092" y="3852" width="323" height="58" fill="#FFFFFF"/>
<text x="2100" y="3902" font-family="Microsoft YaHei, SimSun, sans-serif" font-size="34" font-weight="700" fill="#1F2933">是：回Home后重试</text>
<polyline points="2050,4030 2050,4070" fill="none" stroke="#1F2933" stroke-width="6" stroke-linejoin="round" stroke-linecap="round" marker-end="url(#arrow)"/>
<rect x="2072" y="4017" width="50" height="57" fill="#FFFFFF"/>
<text x="2080" y="4066" font-family="Microsoft YaHei, SimSun, sans-serif" font-size="34" font-weight="700" fill="#1F2933">否</text>
<polyline points="2050,4170 2050,4210" fill="none" stroke="#1F2933" stroke-width="6" stroke-linejoin="round" stroke-linecap="round" marker-end="url(#arrow)"/>
<ellipse cx="1300.0" cy="185.0" rx="220.0" ry="55.0" fill="#EAF6EC" stroke="#1F2933" stroke-width="5"/>
<text text-anchor="middle" font-family="Microsoft YaHei, SimSun, sans-serif" font-size="38" font-weight="700" fill="#1F2933"><tspan x="1300" y="203.5">启动</tspan></text>
<rect x="600" y="290" width="1400" height="140" rx="22" fill="#EAF2F8" stroke="#1F2933" stroke-width="5"/>
<text text-anchor="middle" font-family="Microsoft YaHei, SimSun, sans-serif" font-size="38" font-weight="700" fill="#1F2933"><tspan x="1300" y="354.0">加载系统配置</tspan><tspan x="1300" y="403.0">舵机ID、限位、Home、机械尺寸、相机、模型后端</tspan></text>
<rect x="680" y="490" width="1240" height="140" rx="22" fill="#EAF2F8" stroke="#1F2933" stroke-width="5"/>
<text text-anchor="middle" font-family="Microsoft YaHei, SimSun, sans-serif" font-size="37" font-weight="400" fill="#1F2933"><tspan x="1300" y="578.0">发现串口并读取关节状态</tspan></text>
<polygon points="1300,680 1620,780 1300,880 980,780" fill="#FFF8E7" stroke="#1F2933" stroke-width="5"/>
<text text-anchor="middle" font-family="Microsoft YaHei, SimSun, sans-serif" font-size="37" font-weight="700" fill="#1F2933"><tspan x="1300" y="798.0">自检通过？</tspan></text>
<rect x="950" y="950" width="700" height="110" rx="22" fill="#EAF2F8" stroke="#1F2933" stroke-width="5"/>
<text text-anchor="middle" font-family="Microsoft YaHei, SimSun, sans-serif" font-size="38" font-weight="700" fill="#1F2933"><tspan x="1300" y="1023.5">返回 Home</tspan></text>
<rect x="1000" y="1120" width="600" height="110" rx="22" fill="#EAF6EC" stroke="#1F2933" stroke-width="5"/>
<text text-anchor="middle" font-family="Microsoft YaHei, SimSun, sans-serif" font-size="38" font-weight="700" fill="#1F2933"><tspan x="1300" y="1193.5">进入 IDLE</tspan></text>
<polygon points="1300,1310 1600,1400 1300,1490 1000,1400" fill="#FFF8E7" stroke="#1F2933" stroke-width="5"/>
<text text-anchor="middle" font-family="Microsoft YaHei, SimSun, sans-serif" font-size="37" font-weight="700" fill="#1F2933"><tspan x="1300" y="1418.5">收到任务？</tspan></text>
<rect x="650" y="1560" width="1300" height="130" rx="22" fill="#EAF2F8" stroke="#1F2933" stroke-width="5"/>
<text text-anchor="middle" font-family="Microsoft YaHei, SimSun, sans-serif" font-size="37" font-weight="400" fill="#1F2933"><tspan x="1300" y="1620.0">采集 600×480、60 fps RGB 图像</tspan><tspan x="1300" y="1670.0">生成视觉状态</tspan></text>
<rect x="650" y="1750" width="1300" height="140" rx="22" fill="#EAF2F8" stroke="#1F2933" stroke-width="5"/>
<text text-anchor="middle" font-family="Microsoft YaHei, SimSun, sans-serif" font-size="38" font-weight="700" fill="#1F2933"><tspan x="1300" y="1814.0">模型后端：云端 / 本地可选</tspan><tspan x="1300" y="1863.0">返回结构化任务</tspan></text>
<rect x="600" y="1950" width="1400" height="140" rx="22" fill="#EAF2F8" stroke="#1F2933" stroke-width="5"/>
<text text-anchor="middle" font-family="Microsoft YaHei, SimSun, sans-serif" font-size="37" font-weight="400" fill="#1F2933"><tspan x="1300" y="2013.5">本地安全校验</tspan><tspan x="1300" y="2062.5">Schema、对象ID、动作白名单、风险检查</tspan></text>
<polygon points="1300,2120 1620,2220 1300,2320 980,2220" fill="#FFF8E7" stroke="#1F2933" stroke-width="5"/>
<text text-anchor="middle" font-family="Microsoft YaHei, SimSun, sans-serif" font-size="37" font-weight="700" fill="#1F2933"><tspan x="1300" y="2238.0">任务有效？</tspan></text>
<polygon points="1300,2390 1600,2470 1300,2550 1000,2470" fill="#FFF8E7" stroke="#1F2933" stroke-width="5"/>
<text text-anchor="middle" font-family="Microsoft YaHei, SimSun, sans-serif" font-size="37" font-weight="700" fill="#1F2933"><tspan x="1300" y="2488.0">任务类型</tspan></text>
<rect x="280" y="2500" width="740" height="130" rx="22" fill="#EAF2F8" stroke="#1F2933" stroke-width="5"/>
<text text-anchor="middle" font-family="Microsoft YaHei, SimSun, sans-serif" font-size="37" font-weight="400" fill="#1F2933"><tspan x="650" y="2559.0">检测目标与夹爪</tspan><tspan x="650" y="2608.0">计算图像误差</tspan></text>
<polygon points="650,2680 910,2780 650,2880 390,2780" fill="#FFF8E7" stroke="#1F2933" stroke-width="5"/>
<text text-anchor="middle" font-family="Microsoft YaHei, SimSun, sans-serif" font-size="37" font-weight="700" fill="#1F2933"><tspan x="650" y="2776.0">对准误差</tspan><tspan x="650" y="2820.0">≤ 阈值？</tspan></text>
<rect x="930" y="2920" width="260" height="120" rx="22" fill="#FFF8E7" stroke="#1F2933" stroke-width="5"/>
<text text-anchor="middle" font-family="Microsoft YaHei, SimSun, sans-serif" font-size="37" font-weight="400" fill="#1F2933"><tspan x="1060" y="2974.0">小步调整</tspan><tspan x="1060" y="3022.0">关节位置</tspan></text>
<rect x="220" y="2930" width="570" height="110" rx="22" fill="#EAF2F8" stroke="#1F2933" stroke-width="5"/>
<text text-anchor="middle" font-family="Microsoft YaHei, SimSun, sans-serif" font-size="37" font-weight="400" fill="#1F2933"><tspan x="505" y="3003.0">闭合 J6 夹爪</tspan></text>
<rect x="280" y="3075" width="740" height="110" rx="22" fill="#EAF2F8" stroke="#1F2933" stroke-width="5"/>
<text text-anchor="middle" font-family="Microsoft YaHei, SimSun, sans-serif" font-size="37" font-weight="400" fill="#1F2933"><tspan x="650" y="3148.5">J6 接触检测与夹持判定</tspan></text>
<rect x="300" y="3220" width="700" height="110" rx="22" fill="#EAF2F8" stroke="#1F2933" stroke-width="5"/>
<text text-anchor="middle" font-family="Microsoft YaHei, SimSun, sans-serif" font-size="37" font-weight="400" fill="#1F2933"><tspan x="650" y="3293.0">抬起目标并验证稳定性</tspan></text>
<rect x="300" y="3370" width="700" height="100" rx="22" fill="#EAF2F8" stroke="#1F2933" stroke-width="5"/>
<text text-anchor="middle" font-family="Microsoft YaHei, SimSun, sans-serif" font-size="37" font-weight="400" fill="#1F2933"><tspan x="650" y="3439.0">视觉确认抓取结果</tspan></text>
<polygon points="650,3470 870,3540 650,3610 430,3540" fill="#FFF8E7" stroke="#1F2933" stroke-width="5"/>
<text text-anchor="middle" font-family="Microsoft YaHei, SimSun, sans-serif" font-size="37" font-weight="700" fill="#1F2933"><tspan x="650" y="3558.0">抓取成功？</tspan></text>
<rect x="1580" y="2500" width="740" height="130" rx="22" fill="#EAF2F8" stroke="#1F2933" stroke-width="5"/>
<text text-anchor="middle" font-family="Microsoft YaHei, SimSun, sans-serif" font-size="37" font-weight="400" fill="#1F2933"><tspan x="1950" y="2559.0">检测放置目标与夹爪</tspan><tspan x="1950" y="2608.0">计算图像误差</tspan></text>
<polygon points="1950,2680 2210,2780 1950,2880 1690,2780" fill="#FFF8E7" stroke="#1F2933" stroke-width="5"/>
<text text-anchor="middle" font-family="Microsoft YaHei, SimSun, sans-serif" font-size="37" font-weight="700" fill="#1F2933"><tspan x="1950" y="2776.0">对准误差</tspan><tspan x="1950" y="2820.0">≤ 阈值？</tspan></text>
<rect x="2220" y="2920" width="270" height="120" rx="22" fill="#FFF8E7" stroke="#1F2933" stroke-width="5"/>
<text text-anchor="middle" font-family="Microsoft YaHei, SimSun, sans-serif" font-size="37" font-weight="400" fill="#1F2933"><tspan x="2355" y="2974.0">小步调整</tspan><tspan x="2355" y="3022.0">保持对准</tspan></text>
<rect x="1510" y="2930" width="600" height="110" rx="22" fill="#EAF2F8" stroke="#1F2933" stroke-width="5"/>
<text text-anchor="middle" font-family="Microsoft YaHei, SimSun, sans-serif" font-size="37" font-weight="400" fill="#1F2933"><tspan x="1810" y="3003.0">保持对准并小步下降</tspan></text>
<polygon points="1950,3070 2200,3150 1950,3230 1700,3150" fill="#FFF8E7" stroke="#1F2933" stroke-width="5"/>
<text text-anchor="middle" font-family="Microsoft YaHei, SimSun, sans-serif" font-size="37" font-weight="700" fill="#1F2933"><tspan x="1950" y="3168.5">到达释放位置？</tspan></text>
<rect x="2220" y="3280" width="270" height="120" rx="22" fill="#FFF8E7" stroke="#1F2933" stroke-width="5"/>
<text text-anchor="middle" font-family="Microsoft YaHei, SimSun, sans-serif" font-size="37" font-weight="400" fill="#1F2933"><tspan x="2355" y="3334.5">继续校正</tspan><tspan x="2355" y="3381.5">并下降</tspan></text>
<rect x="1510" y="3260" width="570" height="90" rx="22" fill="#EAF2F8" stroke="#1F2933" stroke-width="5"/>
<text text-anchor="middle" font-family="Microsoft YaHei, SimSun, sans-serif" font-size="37" font-weight="400" fill="#1F2933"><tspan x="1795" y="3323.0">J6 张开释放</tspan></text>
<rect x="1600" y="3380" width="700" height="85" rx="22" fill="#EAF2F8" stroke="#1F2933" stroke-width="5"/>
<text text-anchor="middle" font-family="Microsoft YaHei, SimSun, sans-serif" font-size="37" font-weight="400" fill="#1F2933"><tspan x="1950" y="3441.0">视觉确认放置结果</tspan></text>
<polygon points="1950,3470 2170,3540 1950,3610 1730,3540" fill="#FFF8E7" stroke="#1F2933" stroke-width="5"/>
<text text-anchor="middle" font-family="Microsoft YaHei, SimSun, sans-serif" font-size="37" font-weight="700" fill="#1F2933"><tspan x="1950" y="3558.0">放置成功？</tspan></text>
<rect x="780" y="3650" width="570" height="105" rx="22" fill="#EAF6EC" stroke="#1F2933" stroke-width="5"/>
<text text-anchor="middle" font-family="Microsoft YaHei, SimSun, sans-serif" font-size="38" font-weight="700" fill="#1F2933"><tspan x="1065" y="3720.0">任务完成</tspan></text>
<rect x="1700" y="3650" width="700" height="120" rx="22" fill="#FDEDEC" stroke="#1F2933" stroke-width="5"/>
<text text-anchor="middle" font-family="Microsoft YaHei, SimSun, sans-serif" font-size="38" font-weight="700" fill="#1F2933"><tspan x="2050" y="3704.0">进入受控恢复</tspan><tspan x="2050" y="3754.0">停止动作并保留故障信息</tspan></text>
<polygon points="2050,3830 2300,3930 2050,4030 1800,3930" fill="#FFF8E7" stroke="#1F2933" stroke-width="5"/>
<text text-anchor="middle" font-family="Microsoft YaHei, SimSun, sans-serif" font-size="37" font-weight="700" fill="#1F2933"><tspan x="2050" y="3949.0">故障可恢复？</tspan></text>
<rect x="1750" y="4070" width="600" height="100" rx="22" fill="#FDEDEC" stroke="#1F2933" stroke-width="5"/>
<text text-anchor="middle" font-family="Microsoft YaHei, SimSun, sans-serif" font-size="38" font-weight="700" fill="#1F2933"><tspan x="2050" y="4134.5">ABORT</tspan></text>
<ellipse cx="2050.0" cy="4260.0" rx="240.0" ry="50.0" fill="#FDEDEC" stroke="#1F2933" stroke-width="5"/>
<text text-anchor="middle" font-family="Microsoft YaHei, SimSun, sans-serif" font-size="38" font-weight="700" fill="#1F2933"><tspan x="2050" y="4278.5">任务结束</tspan></text>
<text x="85" y="4310" font-family="Microsoft YaHei, SimSun, sans-serif" font-size="30" fill="#52616B">说明：抓取与放置均采用视觉闭环；任一环节失败均进入受控恢复或 ABORT。</text>
</svg>